<svg width="29" height="31" viewBox="0 0 29 31" fill="none" xmlns="http://www.w3.org/2000/svg">
<path d="M10.3216 28.2944V23.8353C10.3216 22.697 11.2511 21.7742 12.3977 21.7742H16.5892C17.1399 21.7742 17.6679 21.9913 18.0573 22.3779C18.4467 22.7644 18.6654 23.2886 18.6654 23.8353V28.2944C18.6619 28.7677 18.8488 29.2227 19.1847 29.5586C19.5206 29.8944 19.9776 30.0833 20.4543 30.0833H23.3139C24.6495 30.0867 25.9315 29.5625 26.8771 28.6262C27.8227 27.6899 28.3542 26.4185 28.3542 25.0926V12.3892C28.3541 11.3182 27.8759 10.3023 27.0484 9.61513L17.3205 1.9023C15.6283 0.549976 13.2037 0.593639 11.562 2.006L2.05606 9.61513C1.18941 10.282 0.67143 11.3009 0.645833 12.3892V25.0797C0.645833 27.8431 2.90243 30.0833 5.68609 30.0833H8.48042C9.47054 30.0833 10.2752 29.2903 10.2824 28.3074L10.3216 28.2944Z" fill="#4585FF"/>
</svg>
