<svg width="24" height="25" viewBox="0 0 24 25" fill="none" xmlns="http://www.w3.org/2000/svg">
<path d="M11 9.20984H13V7.20984H11M12 20.2098C7.59 20.2098 4 16.6198 4 12.2098C4 7.79984 7.59 4.20984 12 4.20984C16.41 4.20984 20 7.79984 20 12.2098C20 16.6198 16.41 20.2098 12 20.2098ZM12 2.20984C10.6868 2.20984 9.38642 2.4685 8.17317 2.97104C6.95991 3.47359 5.85752 4.21019 4.92893 5.13877C3.05357 7.01413 2 9.55767 2 12.2098C2 14.862 3.05357 17.4055 4.92893 19.2809C5.85752 20.2095 6.95991 20.9461 8.17317 21.4486C9.38642 21.9512 10.6868 22.2098 12 22.2098C14.6522 22.2098 17.1957 21.1563 19.0711 19.2809C20.9464 17.4055 22 14.862 22 12.2098C22 10.8966 21.7413 9.59626 21.2388 8.383C20.7362 7.16975 19.9997 6.06736 19.0711 5.13877C18.1425 4.21019 17.0401 3.47359 15.8268 2.97104C14.6136 2.4685 13.3132 2.20984 12 2.20984ZM11 17.2098H13V11.2098H11V17.2098Z" fill="#767E8C"/>
</svg>
