<svg width="35" height="35" viewBox="0 0 35 35" fill="none" xmlns="http://www.w3.org/2000/svg">
<path d="M20.4167 11.6667H21.875C22.2618 11.6667 22.6327 11.513 22.9062 11.2395C23.1797 10.966 23.3333 10.5951 23.3333 10.2083C23.3333 9.82155 23.1797 9.45062 22.9062 9.17713C22.6327 8.90364 22.2618 8.74999 21.875 8.74999H20.4167C20.0299 8.74999 19.659 8.90364 19.3855 9.17713C19.112 9.45062 18.9583 9.82155 18.9583 10.2083C18.9583 10.5951 19.112 10.966 19.3855 11.2395C19.659 11.513 20.0299 11.6667 20.4167 11.6667ZM20.4167 17.5H21.875C22.2618 17.5 22.6327 17.3463 22.9062 17.0729C23.1797 16.7994 23.3333 16.4284 23.3333 16.0417C23.3333 15.6549 23.1797 15.2839 22.9062 15.0105C22.6327 14.737 22.2618 14.5833 21.875 14.5833H20.4167C20.0299 14.5833 19.659 14.737 19.3855 15.0105C19.112 15.2839 18.9583 15.6549 18.9583 16.0417C18.9583 16.4284 19.112 16.7994 19.3855 17.0729C19.659 17.3463 20.0299 17.5 20.4167 17.5ZM13.125 11.6667H14.5833C14.9701 11.6667 15.341 11.513 15.6145 11.2395C15.888 10.966 16.0417 10.5951 16.0417 10.2083C16.0417 9.82155 15.888 9.45062 15.6145 9.17713C15.341 8.90364 14.9701 8.74999 14.5833 8.74999H13.125C12.7382 8.74999 12.3673 8.90364 12.0938 9.17713C11.8203 9.45062 11.6667 9.82155 11.6667 10.2083C11.6667 10.5951 11.8203 10.966 12.0938 11.2395C12.3673 11.513 12.7382 11.6667 13.125 11.6667ZM13.125 17.5H14.5833C14.9701 17.5 15.341 17.3463 15.6145 17.0729C15.888 16.7994 16.0417 16.4284 16.0417 16.0417C16.0417 15.6549 15.888 15.2839 15.6145 15.0105C15.341 14.737 14.9701 14.5833 14.5833 14.5833H13.125C12.7382 14.5833 12.3673 14.737 12.0938 15.0105C11.8203 15.2839 11.6667 15.6549 11.6667 16.0417C11.6667 16.4284 11.8203 16.7994 12.0938 17.0729C12.3673 17.3463 12.7382 17.5 13.125 17.5ZM30.625 29.1667H29.1667V4.37499C29.1667 3.98822 29.013 3.61728 28.7395 3.34379C28.466 3.0703 28.0951 2.91666 27.7083 2.91666H7.29167C6.9049 2.91666 6.53396 3.0703 6.26047 3.34379C5.98698 3.61728 5.83334 3.98822 5.83334 4.37499V29.1667H4.37501C3.98823 29.1667 3.6173 29.3203 3.34381 29.5938C3.07032 29.8673 2.91667 30.2382 2.91667 30.625C2.91667 31.0118 3.07032 31.3827 3.34381 31.6562C3.6173 31.9297 3.98823 32.0833 4.37501 32.0833H30.625C31.0118 32.0833 31.3827 31.9297 31.6562 31.6562C31.9297 31.3827 32.0833 31.0118 32.0833 30.625C32.0833 30.2382 31.9297 29.8673 31.6562 29.5938C31.3827 29.3203 31.0118 29.1667 30.625 29.1667ZM18.9583 29.1667H16.0417V23.3333H18.9583V29.1667ZM26.25 29.1667H21.875V21.875C21.875 21.4882 21.7214 21.1173 21.4479 20.8438C21.1744 20.5703 20.8034 20.4167 20.4167 20.4167H14.5833C14.1966 20.4167 13.8256 20.5703 13.5521 20.8438C13.2787 21.1173 13.125 21.4882 13.125 21.875V29.1667H8.75V5.83332H26.25V29.1667Z" fill="#A0AAB8"/>
</svg>
