<svg width="24" height="24" viewBox="0 0 24 24" fill="none" xmlns="http://www.w3.org/2000/svg">
<path d="M5 21C4.45 21 3.979 20.8043 3.587 20.413C3.19567 20.021 3 19.55 3 19V5C3 4.45 3.19567 3.979 3.587 3.587C3.979 3.19567 4.45 3 5 3H19C19.55 3 20.021 3.19567 20.413 3.587C20.8043 3.979 21 4.45 21 5V19C21 19.55 20.8043 20.021 20.413 20.413C20.021 20.8043 19.55 21 19 21H5ZM5 19H19V5H5V19ZM10 13H14V16C14 16.2833 14.096 16.5207 14.288 16.712C14.4793 16.904 14.7167 17 15 17C15.2833 17 15.521 16.904 15.713 16.712C15.9043 16.5207 16 16.2833 16 16V8C16 7.71667 15.9043 7.479 15.713 7.287C15.521 7.09567 15.2833 7 15 7C14.7167 7 14.4793 7.09567 14.288 7.287C14.096 7.479 14 7.71667 14 8V11H10V8C10 7.71667 9.90433 7.479 9.713 7.287C9.521 7.09567 9.28333 7 9 7C8.71667 7 8.47933 7.09567 8.288 7.287C8.096 7.479 8 7.71667 8 8V16C8 16.2833 8.096 16.5207 8.288 16.712C8.47933 16.904 8.71667 17 9 17C9.28333 17 9.521 16.904 9.713 16.712C9.90433 16.5207 10 16.2833 10 16V13Z" fill="#767E8C"/>
</svg>
