<svg width="19" height="25" viewBox="0 0 19 25" fill="none" xmlns="http://www.w3.org/2000/svg">
<path d="M3.5 20.7098C4.33 21.5398 5.67 21.5398 6.5 20.7098L19.5 7.70984C20.33 6.87984 20.33 5.53984 19.5 4.70984C18.67 3.87984 17.33 3.87984 16.5 4.70984L3.5 17.7098C2.67 18.5398 2.67 19.8798 3.5 20.7098Z" stroke="#767E8C" stroke-width="1.5" stroke-linecap="round" stroke-linejoin="round"/>
<path d="M18.01 9.19983L15.01 6.19983" stroke="#767E8C" stroke-width="1.5" stroke-linecap="round" stroke-linejoin="round"/>
<path d="M8.5 2.64984L10 2.20984L9.56 3.70984L10 5.20984L8.5 4.76984L7 5.20984L7.44 3.70984L7 2.20984L8.5 2.64984Z" stroke="#767E8C" stroke-linecap="round" stroke-linejoin="round"/>
<path d="M4.5 8.64984L6 8.20984L5.56 9.70984L6 11.2098L4.5 10.7698L3 11.2098L3.44 9.70984L3 8.20984L4.5 8.64984Z" stroke="#767E8C" stroke-linecap="round" stroke-linejoin="round"/>
<path d="M19.5 13.6498L21 13.2098L20.56 14.7098L21 16.2098L19.5 15.7698L18 16.2098L18.44 14.7098L18 13.2098L19.5 13.6498Z" stroke="#767E8C" stroke-linecap="round" stroke-linejoin="round"/>
</svg>
