<svg width="35" height="35" viewBox="0 0 35 35" fill="none" xmlns="http://www.w3.org/2000/svg">
<mask id="mask0_167_3756" style="mask-type:luminance" maskUnits="userSpaceOnUse" x="5" y="21" width="24" height="11">
<path fill-rule="evenodd" clip-rule="evenodd" d="M5.83333 21.1401H28.9332V31.8939H5.83333V21.1401Z" fill="white"/>
</mask>
<g mask="url(#mask0_167_3756)">
<path fill-rule="evenodd" clip-rule="evenodd" d="M17.3846 23.3276C11.1707 23.3276 8.02068 24.3951 8.02068 26.5024C8.02068 28.6287 11.1707 29.7064 17.3846 29.7064C23.5971 29.7064 26.7457 28.6389 26.7457 26.5316C26.7457 24.4053 23.5971 23.3276 17.3846 23.3276ZM17.3846 31.8939C14.5278 31.8939 5.83318 31.8939 5.83318 26.5024C5.83318 21.6958 12.4263 21.1401 17.3846 21.1401C20.2415 21.1401 28.9332 21.1401 28.9332 26.5316C28.9332 31.3383 22.3415 31.8939 17.3846 31.8939Z" fill="#A0AAB8"/>
</g>
<mask id="mask1_167_3756" style="mask-type:luminance" maskUnits="userSpaceOnUse" x="9" y="2" width="17" height="17">
<path fill-rule="evenodd" clip-rule="evenodd" d="M9.63939 2.91681H25.1269V18.4023H9.63939V2.91681Z" fill="white"/>
</mask>
<g mask="url(#mask1_167_3756)">
<path fill-rule="evenodd" clip-rule="evenodd" d="M17.3846 4.99873C14.2624 4.99873 11.7219 7.53769 11.7219 10.66C11.7117 13.7721 14.2332 16.3096 17.3424 16.3212L17.3846 17.3625V16.3212C20.5055 16.3212 23.0444 13.7808 23.0444 10.66C23.0444 7.53769 20.5055 4.99873 17.3846 4.99873ZM17.3846 18.4023H17.338C13.0767 18.3891 9.62485 14.9139 9.63944 10.6556C9.63944 6.38998 13.1132 2.91623 17.3846 2.91623C21.6546 2.91623 25.1269 6.38998 25.1269 10.66C25.1269 14.93 21.6546 18.4023 17.3846 18.4023Z" fill="#A0AAB8"/>
</g>
</svg>
