<svg width="24" height="25" viewBox="0 0 24 25" fill="none" xmlns="http://www.w3.org/2000/svg">
<path d="M12 18.7098C15.5899 18.7098 18.5 15.7997 18.5 12.2098C18.5 8.61999 15.5899 5.70984 12 5.70984C8.41015 5.70984 5.5 8.61999 5.5 12.2098C5.5 15.7997 8.41015 18.7098 12 18.7098Z" stroke="#767E8C" stroke-width="1.5" stroke-linecap="round" stroke-linejoin="round"/>
<path d="M19.14 19.3498L19.01 19.2198M19.01 5.19984L19.14 5.06984L19.01 5.19984ZM4.86 19.3498L4.99 19.2198L4.86 19.3498ZM12 2.28984V2.20984V2.28984ZM12 22.2098V22.1298V22.2098ZM2.08 12.2098H2H2.08ZM22 12.2098H21.92H22ZM4.99 5.19984L4.86 5.06984L4.99 5.19984Z" stroke="#767E8C" stroke-width="2" stroke-linecap="round" stroke-linejoin="round"/>
</svg>
